<svg width="37" height="34" viewBox="0 0 37 34" fill="none" xmlns="http://www.w3.org/2000/svg">
<path d="M27.8984 0.149414C29.0271 0.149464 29.957 1.03355 29.957 2.13184V3.31641C30.6691 3.31241 31.3822 3.31024 32.0977 3.31445C34.3193 3.33016 36.1992 5.19684 36.2041 7.40039C36.2131 14.6651 36.2116 21.9288 36.2041 29.1904V29.1914C36.1994 31.2246 34.395 33.0747 32.3613 33.1924L32.1641 33.1982L18.1641 33.1992L14.0674 33.1953C10.8852 33.1893 7.70226 33.1844 4.51953 33.2129H4.48047C2.34802 33.2128 0.867864 31.7781 0.391602 30.4297L0.286133 30.0938C0.195736 29.7629 0.150391 29.4433 0.150391 29.126V23.1953C0.14889 17.9215 0.148819 12.6488 0.15332 7.375C0.156611 5.22749 2.04849 3.33584 4.20898 3.31543L4.39844 3.31445L5.87012 3.30273C6.35669 3.30004 6.85724 3.29944 7.2959 3.30078V2.13184C7.2959 1.03337 8.22688 0.149414 9.35547 0.149414C10.4842 0.14946 11.4141 1.03354 11.4141 2.13184V3.29785H13.4766V2.13184C13.4766 1.03358 14.4065 0.149525 15.5352 0.149414C16.6653 0.149414 17.5957 1.03344 17.5957 2.13184V3.29785H19.6602V2.13184C19.6602 1.03352 20.59 0.149414 21.7188 0.149414C22.8487 0.149621 23.7783 1.03357 23.7783 2.13184V3.29785H25.8389V2.13184C25.8389 1.03344 26.7683 0.149414 27.8984 0.149414ZM11.4141 5.9834C11.4139 7.08171 10.481 7.96671 9.35254 7.9668C8.22379 7.9668 7.29407 7.08303 7.29395 5.9834V4.80078C6.37598 4.79569 5.173 4.80636 4.41016 4.81348L4.22656 4.81738H4.22559C2.88378 4.83012 1.65726 6.05518 1.65723 7.37695C1.65123 12.6521 1.65234 17.9234 1.65234 23.1973L1.6543 29.1279C1.65431 29.3128 1.68024 29.502 1.73828 29.7119L1.80762 29.9297V29.9307C2.10936 30.7918 3.08474 31.72 4.50977 31.7129L6.94141 31.6992C9.3731 31.6902 11.8039 31.6937 14.2334 31.6982L23.415 31.7012L32.1641 31.6982C32.7945 31.6974 33.4305 31.3894 33.9111 30.9141C34.3919 30.4385 34.7019 29.8105 34.7012 29.1895C34.7072 21.9293 34.7082 14.6655 34.6992 7.40234C34.6976 6.01381 33.4991 4.82399 32.082 4.81543C31.3736 4.80983 30.6619 4.81314 29.9512 4.81836V5.9834C29.951 7.08296 29.0212 7.96667 27.8926 7.9668C26.7624 7.9668 25.8322 7.08311 25.832 5.9834V4.7998H23.7725V5.9834C23.7723 7.08311 22.8421 7.9668 21.7119 7.9668C20.5834 7.96657 19.6544 7.08289 19.6543 5.9834V4.7998H17.5938V5.9834C17.5936 7.08301 16.6642 7.96663 15.5342 7.9668C14.4054 7.9668 13.4757 7.08303 13.4756 5.9834V4.7998H11.4141V5.9834ZM9.35547 1.65137C9.03008 1.65137 8.79688 1.88381 8.79688 2.13184V5.9834C8.79702 6.23262 9.02993 6.46289 9.35547 6.46289C9.68057 6.46285 9.91309 6.23117 9.91309 5.98145V2.13184C9.91309 1.88255 9.68105 1.65141 9.35547 1.65137ZM15.5352 1.65137C15.2099 1.65147 14.9775 1.88386 14.9775 2.13184V5.9834C14.9777 6.23257 15.2097 6.46279 15.5352 6.46289C15.8607 6.46289 16.0947 6.23081 16.0947 5.98145V2.13184C16.0947 1.88291 15.8612 1.65137 15.5352 1.65137ZM21.7158 1.65137C21.3904 1.65137 21.1572 1.88381 21.1572 2.13184V5.98145C21.1572 6.23248 21.3904 6.46289 21.7158 6.46289C22.0412 6.46267 22.2754 6.23069 22.2754 5.98145V2.13184C22.2754 1.88303 22.0416 1.65159 21.7158 1.65137ZM27.8965 1.65137C27.5708 1.65154 27.3369 1.88428 27.3369 2.13184V5.98145C27.3369 6.232 27.5708 6.46272 27.8965 6.46289C28.2216 6.46289 28.4551 6.23119 28.4551 5.98145V2.13184C28.4551 1.88252 28.2221 1.65137 27.8965 1.65137Z" fill="#293E72" stroke="#293E72" stroke-width="0.3"/>
<path d="M4.91309 6.87842C5.32213 6.87864 5.65731 7.20897 5.66309 7.62061C5.67153 8.26566 5.95931 8.88719 6.40332 9.34814C6.84745 9.80918 7.43761 10.1 8.04199 10.1001H8.0459L31.7314 10.0981H31.7324C32.1464 10.1001 32.4821 10.4375 32.4805 10.8521C32.4786 11.2646 32.1428 11.6001 31.7285 11.6001L8.0459 11.6021H8.04199C5.99575 11.6018 4.19024 9.74843 4.16211 7.64014V7.63916C4.15845 7.22519 4.49025 6.88596 4.90234 6.87842H4.91309Z" fill="#293E72" stroke="#293E72" stroke-width="0.3"/>
<path d="M9.75391 15.5269C10.1664 15.5271 10.5039 15.8633 10.5039 16.2778V18.186C10.5038 18.6005 10.1663 18.9358 9.75391 18.936C9.34129 18.936 9.00303 18.6006 9.00293 18.186V16.2778C9.00293 15.8649 9.34098 15.5269 9.75391 15.5269Z" fill="#293E72" stroke="#293E72" stroke-width="0.3"/>
<path d="M15.7559 15.5269C16.1683 15.5271 16.5059 15.8633 16.5059 16.2778V18.186C16.5058 18.6005 16.1683 18.9358 15.7559 18.936C15.3432 18.936 15.005 18.6006 15.0049 18.186V16.2778C15.0049 15.8649 15.3429 15.5269 15.7559 15.5269Z" fill="#293E72" stroke="#293E72" stroke-width="0.3"/>
<path d="M21.7568 15.5269C22.1693 15.5271 22.5068 15.8633 22.5068 16.2778V18.186C22.5067 18.6005 22.1693 18.9358 21.7568 18.936C21.3442 18.936 21.006 18.6006 21.0059 18.186V16.2778C21.0059 15.8649 21.3439 15.5269 21.7568 15.5269Z" fill="#293E72" stroke="#293E72" stroke-width="0.3"/>
<path d="M27.7568 15.5269C28.1693 15.5271 28.5068 15.8633 28.5068 16.2778V18.186C28.5067 18.6005 28.1693 18.9358 27.7568 18.936C27.3442 18.936 27.006 18.6006 27.0059 18.186V16.2778C27.0059 15.8649 27.3439 15.5269 27.7568 15.5269Z" fill="#293E72" stroke="#293E72" stroke-width="0.3"/>
<path d="M9.75391 24.397C10.1681 24.3972 10.5039 24.7337 10.5039 25.1479V27.0562C10.5038 27.4688 10.1666 27.8059 9.75391 27.8062C9.34129 27.8062 9.00303 27.4707 9.00293 27.0562V25.1479C9.00293 24.7353 9.33924 24.397 9.75391 24.397Z" fill="#293E72" stroke="#293E72" stroke-width="0.3"/>
<path d="M15.7559 24.397C16.1701 24.3972 16.5059 24.7337 16.5059 25.1479V27.0562C16.5058 27.4688 16.1685 27.8059 15.7559 27.8062C15.3432 27.8062 15.005 27.4707 15.0049 27.0562V25.1479C15.0049 24.7353 15.3412 24.397 15.7559 24.397Z" fill="#293E72" stroke="#293E72" stroke-width="0.3"/>
<path d="M21.7568 24.397C22.1711 24.3972 22.5068 24.7337 22.5068 25.1479V27.0562C22.5067 27.4688 22.1695 27.8059 21.7568 27.8062C21.3442 27.8062 21.006 27.4707 21.0059 27.0562V25.1479C21.0059 24.7353 21.3422 24.397 21.7568 24.397Z" fill="#293E72" stroke="#293E72" stroke-width="0.3"/>
<path d="M27.7568 24.397C28.1711 24.3972 28.5068 24.7337 28.5068 25.1479V27.0562C28.5067 27.4688 28.1695 27.8059 27.7568 27.8062C27.3442 27.8062 27.006 27.4707 27.0059 27.0562V25.1479C27.0059 24.7353 27.3422 24.397 27.7568 24.397Z" fill="#293E72" stroke="#293E72" stroke-width="0.3"/>
<path d="M30.499 20.9141C30.9137 20.9141 31.249 21.2524 31.249 21.665C31.2488 22.0775 30.9135 22.415 30.499 22.415H5.85938C5.4466 22.415 5.10864 22.0778 5.1084 21.665C5.1084 21.2524 5.44471 20.9141 5.85938 20.9141H30.499Z" fill="#293E72" stroke="#293E72" stroke-width="0.3"/>
</svg>
