<svg width="35" height="34" viewBox="0 0 35 34" fill="none" xmlns="http://www.w3.org/2000/svg">
<path d="M30.5107 0.158203C30.7242 0.140678 30.9274 0.151672 31.1182 0.188477H31.1191C31.6121 0.289927 32.0556 0.565645 32.3877 0.970703L32.5234 1.15234C32.7473 1.48548 32.874 1.85896 32.9092 2.2793C33.4654 2.37212 33.9167 2.60942 34.2334 2.98633C34.5721 3.3895 34.7445 3.93468 34.7432 4.58789L34.7402 7.82031L34.7256 7.96191C34.6589 8.28021 34.376 8.52051 34.0371 8.52051H34.0361C33.6508 8.51855 33.337 8.20626 33.3369 7.81738L33.3398 4.58789C33.3398 4.28987 33.2868 4.08471 33.1924 3.94531C33.1285 3.85106 33.0386 3.77907 32.9141 3.72754C32.9126 4.58321 32.9101 5.5761 32.9062 6.51465L32.877 28.8662C32.877 28.9727 32.8756 29.0792 32.873 29.1846C32.8734 29.1865 32.8737 29.1889 32.874 29.1914C32.8748 29.197 32.876 29.2065 32.876 29.2178C32.876 29.2267 32.8741 29.2345 32.873 29.2412C32.8585 29.6915 32.787 30.1674 32.4053 30.5508C32.1509 30.8078 31.8064 30.9661 31.377 31.0449V32.6602C31.377 33.0463 31.0619 33.3622 30.6758 33.3623C30.2898 33.3623 29.9746 33.048 29.9746 32.6602V31.043C29.5476 30.9634 29.2036 30.8022 28.9463 30.5449C28.5627 30.1597 28.4798 29.6811 28.459 29.2666L28.4502 29.2158L28.4521 29.1855C28.4531 29.1781 28.4545 29.1707 28.4551 29.167C28.4559 29.1623 28.456 29.1607 28.4561 29.1602C28.4534 29.07 28.4502 28.975 28.4502 28.8877L28.4756 4.91309V4.91113C28.4828 4.41324 28.4895 3.91666 28.4805 3.42188L28.4658 2.92773C28.4204 1.90144 28.6848 1.23948 29.0703 0.819336C29.4532 0.40218 29.9374 0.243948 30.2939 0.185547L30.5107 0.158203ZM30.665 28.4062C30.2365 28.4062 29.8878 28.7465 29.8643 29.1729C29.8684 29.2735 29.8761 29.3598 29.8906 29.4297C29.906 29.5035 29.9258 29.5388 29.9404 29.5537L29.9414 29.5547C29.969 29.5828 30.1221 29.7002 30.6768 29.7002C31.2571 29.7002 31.3982 29.5754 31.4131 29.5605C31.4217 29.551 31.4393 29.5217 31.4521 29.4512C31.4645 29.3834 31.4696 29.2986 31.4717 29.2012L31.4658 29.1201C31.4172 28.719 31.0771 28.4064 30.665 28.4062ZM29.876 4.66699C29.8772 4.75259 29.8773 4.84024 29.876 4.92871L29.877 4.92969L29.8691 5.87207L29.8555 27.1641C30.1043 27.0631 30.3751 27.002 30.6631 27.002C30.9535 27.002 31.2266 27.0648 31.4766 27.167L31.5029 6.50684L31.5088 4.55859H29.875C29.8754 4.59432 29.8755 4.63061 29.876 4.66699ZM30.709 1.55176C30.6533 1.55176 30.5926 1.55776 30.5205 1.56934L30.5195 1.56836C30.3966 1.58943 30.2362 1.61928 30.1035 1.76953C29.969 1.92185 29.8389 2.22887 29.8662 2.86719L29.8682 3.15723H31.5117V2.89648C31.5117 2.86476 31.515 2.83515 31.5186 2.80762C31.5117 2.7268 31.5146 2.65585 31.5146 2.62988V2.62305C31.53 2.3203 31.4781 2.11374 31.3594 1.93848V1.9375C31.2604 1.79024 31.0903 1.61578 30.8379 1.56348V1.5625C30.8002 1.55508 30.7567 1.55177 30.709 1.55176Z" fill="#293E72" stroke="#293E72" stroke-width="0.3"/>
<path d="M16.0322 0.171875C16.0829 0.171931 16.1267 0.185053 16.1514 0.192383C16.1687 0.197512 16.1789 0.200508 16.1855 0.202148C16.1978 0.199353 16.2147 0.194357 16.2344 0.194336C16.3565 0.194336 16.4622 0.2324 16.5518 0.279297C16.8809 0.371823 17.2035 0.523801 17.501 0.80957H17.5L24.4668 7.4502C24.5284 7.5083 24.5738 7.57217 24.6113 7.63086C24.6299 7.66 24.648 7.69002 24.6641 7.7168C24.6785 7.74083 24.6923 7.76281 24.7061 7.78418C24.773 7.8498 24.8281 7.92795 24.8652 8.01758C24.9681 8.24568 25.0296 8.49545 25.0283 8.7627L25.0488 30.0439C25.0488 30.4949 25.0405 30.9473 25.0322 31.3965C25.0213 31.9788 24.8304 32.4658 24.4824 32.8076C24.1345 33.1493 23.6442 33.3315 23.0615 33.333L1.97266 33.3398C1.002 33.3398 0.198791 32.5361 0.174805 31.5557C0.16096 31.0293 0.162685 30.502 0.164062 29.9785L0.149414 7.50586L0.164062 2.17188C0.166961 1.55677 0.346035 1.05304 0.698242 0.703125C1.05036 0.353309 1.55568 0.176823 2.17188 0.176758L7.65527 0.173828H7.65625L12.8721 0.177734C13.9189 0.177735 14.9683 0.180138 16.0166 0.171875H16.0322ZM12.8691 1.5791H7.65723L2.17383 1.58203C1.89115 1.58203 1.75757 1.6273 1.68652 1.69727C1.61587 1.76708 1.56971 1.89935 1.56836 2.18066C1.56147 3.95614 1.55607 5.73151 1.55469 7.50684L1.55176 14.4043L1.55273 16.7021L1.55176 18.5938L1.56836 29.3564V29.3574L1.56641 29.9834C1.56503 30.498 1.56382 31.0105 1.57617 31.5225C1.58137 31.7468 1.7766 31.9355 1.97266 31.9355L23.0596 31.9287C23.2946 31.9287 23.4244 31.88 23.499 31.8066C23.5736 31.7332 23.6241 31.6043 23.6279 31.3701L23.6445 30.042L23.624 8.98047H16.2314C15.8457 8.98026 15.5303 8.66697 15.5303 8.2793V1.5752L12.8691 1.5791ZM16.9346 7.5791H22.5664L16.9346 2.20801V7.5791Z" fill="#293E72" stroke="#293E72" stroke-width="0.3"/>
<path d="M5.87891 22.7749C6.03749 22.8219 6.16069 22.9072 6.23926 23.0337C6.31542 23.1566 6.33994 23.3023 6.33691 23.4536C6.3264 23.9829 6.33048 24.5132 6.33203 25.0464C6.44321 24.9371 6.55412 24.8272 6.66504 24.7163C6.80033 24.581 6.9363 24.4445 7.07422 24.3101H7.0752C7.1784 24.21 7.30053 24.1321 7.44141 24.1079C7.58609 24.0831 7.73161 24.118 7.87012 24.2095C8.00027 24.2959 8.08762 24.4224 8.11816 24.5708C8.14838 24.7177 8.12145 24.8758 8.0459 25.0269C7.91984 25.2804 7.83581 25.5232 7.8418 25.7856C7.84287 25.8336 7.85141 25.8655 7.85938 25.8843C7.86321 25.8933 7.86598 25.8992 7.86816 25.9019C7.8692 25.9031 7.87062 25.9034 7.87109 25.9038L7.87207 25.9048L7.87402 25.9058C7.87637 25.9062 7.88202 25.9068 7.89062 25.9058C7.90856 25.9036 7.938 25.8945 7.97949 25.8706L8.21289 25.7173C8.28965 25.6623 8.3675 25.6043 8.45215 25.5444H8.45312C8.95084 25.1952 9.51 25.027 10.1064 25.0054H10.1074C10.3292 24.9977 10.5507 24.9948 10.7715 24.9946L11.4316 24.9985L11.583 25.0073C11.7297 25.0247 11.8588 25.0678 11.96 25.146C12.1011 25.2552 12.1655 25.4152 12.1689 25.5981L12.1592 25.731C12.1366 25.859 12.0753 25.9701 11.9688 26.0522C11.8684 26.1295 11.7399 26.1717 11.5938 26.188L11.4414 26.1958H10.543C9.89683 26.1918 9.3253 26.3466 8.82031 26.7583C8.55348 26.9765 8.26385 27.0949 7.97168 27.1118C7.67924 27.1287 7.39448 27.0426 7.13867 26.8706H7.1377C6.94624 26.7409 6.81894 26.5685 6.71777 26.3667C6.54208 26.5481 6.38022 26.7166 6.21875 26.8823H6.21777C6.12492 26.9776 6.01587 27.0519 5.88867 27.0835C5.7592 27.1156 5.62411 27.101 5.49023 27.0405C5.35929 26.9812 5.26595 26.8909 5.20801 26.7769C5.15166 26.6658 5.13437 26.5418 5.13672 26.4194C5.13743 26.3784 5.13471 26.3377 5.13477 26.2974C5.08389 26.4139 5.03382 26.5308 4.98242 26.646C4.90086 26.8282 4.78849 26.973 4.63867 27.0483C4.48322 27.1266 4.3126 27.1181 4.14746 27.0454C3.98848 26.9753 3.875 26.8516 3.82715 26.6909C3.78046 26.5339 3.80163 26.3577 3.87598 26.1821C4.2994 25.185 4.72493 24.1899 5.15527 23.1968C5.28683 22.8913 5.56904 22.6833 5.87891 22.7749Z" fill="#293E72" stroke="#293E72" stroke-width="0.3"/>
<path d="M20.6299 18.043C20.9175 18.043 21.1573 18.1732 21.2891 18.3779C21.405 18.5582 21.4297 18.785 21.3428 19.0029L21.2988 19.0957C21.2256 19.2258 21.1279 19.3147 21.0107 19.3682C20.8971 19.42 20.7743 19.4345 20.6553 19.4346H20.6543C19.0744 19.4291 13.0277 19.4316 11.4473 19.4316C9.88796 19.4316 6.13859 19.433 4.5791 19.4316C4.35542 19.4316 4.15831 19.3777 4.01562 19.2549C3.90604 19.1604 3.84013 19.0354 3.81445 18.8916L3.80176 18.7422C3.8026 18.5373 3.87762 18.3568 4.02246 18.2295C4.16541 18.104 4.36207 18.043 4.58496 18.043H20.6299Z" fill="#293E72" stroke="#293E72" stroke-width="0.3"/>
<path d="M20.6299 15.4946C20.9175 15.4946 21.1573 15.6248 21.2891 15.8296C21.405 16.0098 21.4297 16.2367 21.3428 16.4546L21.2988 16.5474C21.2256 16.6774 21.1279 16.7664 21.0107 16.8198C20.8971 16.8716 20.7743 16.8862 20.6553 16.8862H20.6543C19.0744 16.8807 13.0277 16.8833 11.4473 16.8833H4.5791C4.35534 16.8825 4.15821 16.8283 4.01562 16.7056C3.90621 16.6113 3.84021 16.4866 3.81445 16.3433L3.80176 16.1938C3.8026 15.9889 3.87762 15.8085 4.02246 15.6812C4.16541 15.5556 4.36207 15.4946 4.58496 15.4946H20.6299Z" fill="#293E72" stroke="#293E72" stroke-width="0.3"/>
<path d="M20.6309 12.9458C20.9182 12.9467 21.1575 13.0772 21.2891 13.2817C21.4215 13.4876 21.4354 13.7543 21.2988 13.9985C21.2256 14.1286 21.1279 14.2175 21.0107 14.271C20.8971 14.3228 20.7743 14.3374 20.6553 14.3374H20.6543C19.0744 14.3319 13.0277 14.3345 11.4473 14.3345C9.88796 14.3345 6.13859 14.3359 4.5791 14.3345C4.35542 14.3344 4.15831 14.2805 4.01562 14.1577C3.90604 14.0632 3.84013 13.9382 3.81445 13.7944L3.80176 13.645C3.8026 13.4401 3.87762 13.2597 4.02246 13.1323C4.16541 13.0068 4.36207 12.9458 4.58496 12.9458H20.6309Z" fill="#293E72" stroke="#293E72" stroke-width="0.3"/>
<path d="M13.7314 20.5918C13.9937 20.5919 14.2191 20.695 14.3584 20.8711C14.4989 21.0488 14.5395 21.2862 14.457 21.5254V21.5264C14.3966 21.7005 14.2951 21.822 14.1582 21.8955C14.0267 21.9661 13.8767 21.9851 13.7314 21.9844C12.1624 21.9775 6.1438 21.9809 4.58301 21.9795C4.35835 21.9795 4.16008 21.9256 4.0166 21.8037C3.86955 21.6787 3.79918 21.4995 3.80078 21.2939C3.80247 21.0891 3.8798 20.9077 4.02344 20.7793C4.16556 20.6524 4.36035 20.5879 4.58105 20.5879C7.70964 20.5865 10.6029 20.5877 13.7314 20.5918Z" fill="#293E72" stroke="#293E72" stroke-width="0.3"/>
<path d="M9.64258 3.29053C10.0287 3.29054 10.3438 3.6065 10.3438 3.99268C10.3436 4.3785 10.0303 4.69384 9.64258 4.69385H3.8877C3.49997 4.69385 3.18568 4.3785 3.18555 3.99268C3.18555 3.60674 3.49989 3.29053 3.8877 3.29053H9.64258Z" fill="#293E72" stroke="#293E72" stroke-width="0.3"/>
<path d="M6.88672 5.47363C7.27248 5.47384 7.58789 5.78811 7.58789 6.17578C7.58776 6.56209 7.272 6.87695 6.88477 6.87695H3.8877C3.5016 6.87695 3.18568 6.56185 3.18555 6.17578C3.18555 5.78985 3.49989 5.47363 3.8877 5.47363H6.88672Z" fill="#293E72" stroke="#293E72" stroke-width="0.3"/>
</svg>
