<svg width="35" height="35" viewBox="0 0 35 35" fill="none" xmlns="http://www.w3.org/2000/svg">
<path d="M17.1273 0C21.7808 0 22.3614 0.0171272 24.1872 0.102764C26.0112 0.1884 27.253 0.474427 28.3457 0.899184C29.4761 1.33422 30.4284 1.9234 31.3807 2.87396C32.2524 3.73033 32.9255 4.76653 33.3554 5.90892C33.7785 6.99993 34.0662 8.24337 34.1519 10.0674C34.2324 11.8932 34.2546 12.4738 34.2546 17.1273C34.2546 21.7808 34.2375 22.3614 34.1519 24.1872C34.0662 26.0112 33.7785 27.253 33.3554 28.3457C32.9267 29.4894 32.2526 30.5254 31.3807 31.3807C30.5243 32.2507 29.4881 32.9255 28.3457 33.3554C27.2547 33.7785 26.0112 34.0662 24.1872 34.1519C22.3614 34.2324 21.7808 34.2546 17.1273 34.2546C12.4738 34.2546 11.8932 34.2375 10.0674 34.1519C8.24337 34.0662 7.00164 33.7785 5.90892 33.3554C4.76538 32.9264 3.72952 32.2523 2.87396 31.3807C2.00288 30.5246 1.32896 29.4889 0.899184 28.3457C0.474427 27.2547 0.1884 26.0112 0.102764 24.1872C0.0222654 22.3614 0 21.7808 0 17.1273C0 12.4738 0.0171272 11.8932 0.102764 10.0674C0.1884 8.24166 0.474427 7.00164 0.899184 5.90892C1.32777 4.76512 2.00185 3.72917 2.87396 2.87396C3.72976 2.00258 4.76555 1.32862 5.90892 0.899184C7.00164 0.474427 8.24166 0.1884 10.0674 0.102764C11.8932 0.0222654 12.4738 0 17.1273 0ZM17.1273 8.56366C14.8561 8.56366 12.6779 9.4659 11.0719 11.0719C9.4659 12.6779 8.56366 14.8561 8.56366 17.1273C8.56366 19.3985 9.4659 21.5767 11.0719 23.1827C12.6779 24.7887 14.8561 25.691 17.1273 25.691C19.3985 25.691 21.5767 24.7887 23.1827 23.1827C24.7887 21.5767 25.691 19.3985 25.691 17.1273C25.691 14.8561 24.7887 12.6779 23.1827 11.0719C21.5767 9.4659 19.3985 8.56366 17.1273 8.56366ZM28.2601 8.13547C28.2601 7.56767 28.0345 7.02312 27.633 6.62162C27.2315 6.22012 26.687 5.99456 26.1192 5.99456C25.5513 5.99456 25.0068 6.22012 24.6053 6.62162C24.2038 7.02312 23.9782 7.56767 23.9782 8.13547C23.9782 8.70328 24.2038 9.24783 24.6053 9.64933C25.0068 10.0508 25.5513 10.2764 26.1192 10.2764C26.687 10.2764 27.2315 10.0508 27.633 9.64933C28.0345 9.24783 28.2601 8.70328 28.2601 8.13547ZM17.1273 11.9891C18.49 11.9891 19.797 12.5305 20.7606 13.4941C21.7242 14.4577 22.2655 15.7646 22.2655 17.1273C22.2655 18.49 21.7242 19.797 20.7606 20.7606C19.797 21.7242 18.49 22.2655 17.1273 22.2655C15.7646 22.2655 14.4577 21.7242 13.4941 20.7606C12.5305 19.797 11.9891 18.49 11.9891 17.1273C11.9891 15.7646 12.5305 14.4577 13.4941 13.4941C14.4577 12.5305 15.7646 11.9891 17.1273 11.9891Z" fill="white"/>
</svg>
