<svg width="37" height="37" viewBox="0 0 37 37" fill="none" xmlns="http://www.w3.org/2000/svg">
<path d="M30.5537 1.37939L30.3662 1.62158C29.9078 2.21226 29.6944 2.83876 29.6943 3.56104C29.6973 7.05093 29.6953 10.5425 29.6953 14.0337L29.6943 19.27L29.6953 23.3149C29.6953 26.4596 29.6969 29.6017 29.6924 32.7466C29.6907 33.8449 28.8649 34.7603 27.7686 34.8735L27.7695 34.8745C26.7117 34.9947 25.7286 34.2594 25.4736 33.1958V33.1948C25.4101 32.9277 25.4003 32.6403 25.4326 32.2769C25.4474 32.1047 25.4401 31.9135 25.3223 31.7837C25.2063 31.656 25.0204 31.6274 24.8027 31.6274H24.7939C20.713 31.6364 16.6321 31.6372 12.5527 31.6372H7.09375C7.01042 31.6372 6.92853 31.6372 6.86816 31.6411C6.83665 31.6432 6.81997 31.6466 6.81445 31.6479C6.81709 31.6472 6.8268 31.6433 6.83887 31.6353C6.85601 31.6238 6.90756 31.5799 6.89746 31.5024L6.60742 31.5708C6.60417 31.5614 6.6047 31.5506 6.60254 31.5405L6.60059 31.5415C6.6003 31.5393 6.60176 31.5368 6.60156 31.5347C6.59737 31.5133 6.59131 31.4928 6.58984 31.4761C6.58716 31.4453 6.58603 31.4091 6.58496 31.3716C6.58283 31.2964 6.58301 31.2067 6.58301 31.1255C6.58151 21.939 6.58151 12.751 6.58301 3.56299C6.58301 2.30379 7.505 1.3794 8.76855 1.37939H30.5537ZM10.7158 24.9214C10.5867 24.8834 10.4089 24.9566 10.2998 25.2085C9.82885 26.2974 9.36083 27.3863 8.89746 28.478C8.836 28.6231 8.83138 28.7396 8.85645 28.8237C8.88055 28.9044 8.93648 28.9712 9.0332 29.0142C9.14616 29.0642 9.2327 29.0599 9.30273 29.0249C9.37842 28.9869 9.46083 28.9001 9.5332 28.7378C9.67673 28.4178 9.81573 28.0947 9.95703 27.77L10.1416 27.3472L10.2412 27.7974C10.2892 28.0134 10.3041 28.2224 10.3057 28.4243L10.3037 28.6235C10.3018 28.7252 10.3167 28.805 10.3477 28.8657C10.3697 28.909 10.4025 28.9476 10.4521 28.98L10.5078 29.0103C10.5975 29.0511 10.6728 29.0559 10.7383 29.0396C10.806 29.0226 10.8767 28.9792 10.9502 28.9038C11.178 28.67 11.406 28.4346 11.667 28.1646L11.8291 27.9976L11.915 28.2144C12.0321 28.512 12.1569 28.7126 12.3594 28.8481H12.3604C12.5896 29.0028 12.8344 29.0735 13.0791 29.0591C13.324 29.0447 13.5798 28.9443 13.8291 28.7407C14.4514 28.2326 15.1557 28.0486 15.9189 28.0532C16.2467 28.0547 16.5722 28.0532 16.9014 28.0532C17.0999 28.0525 17.2204 28.0137 17.2881 27.9614C17.3478 27.9152 17.3859 27.8428 17.3848 27.7153C17.3836 27.591 17.344 27.5156 17.2803 27.4663C17.2097 27.4119 17.0874 27.372 16.8906 27.3706H16.8896C16.4078 27.3661 15.9297 27.3611 15.4521 27.3774C14.8524 27.399 14.3001 27.5669 13.8086 27.9116C13.6423 28.0286 13.4604 28.1746 13.2666 28.2856L13.2656 28.2847C13.1287 28.3638 12.9679 28.4028 12.8301 28.3208C12.7286 28.2603 12.6763 28.1559 12.6553 28.0425L12.6445 27.9272C12.6379 27.5672 12.7523 27.2459 12.9014 26.9478C12.9591 26.8322 12.9704 26.7311 12.9541 26.6519C12.9381 26.5743 12.8933 26.5069 12.8164 26.4565C12.7199 26.3937 12.6398 26.3805 12.5713 26.3921C12.5173 26.4013 12.4595 26.4278 12.3984 26.4751L12.3359 26.5298C12.1861 26.6751 12.0383 26.8235 11.8896 26.9722C11.7414 27.1204 11.592 27.2694 11.4404 27.4165C11.4373 27.4195 11.4326 27.4248 11.418 27.4438C11.4065 27.4588 11.3867 27.4851 11.3613 27.5083C11.3344 27.5329 11.2966 27.5591 11.2461 27.5718C11.1948 27.5846 11.1427 27.5807 11.0928 27.5649L10.9873 27.5317V27.4214C10.9873 26.7365 10.9802 26.0462 10.9922 25.3589L10.9893 25.2671C10.9822 25.1821 10.9619 25.1175 10.9316 25.0688C10.8934 25.0075 10.8298 24.955 10.7158 24.9214ZM9.38184 22.5347C9.19979 22.5347 9.06595 22.5873 8.97949 22.6646C8.89459 22.7404 8.8425 22.8511 8.8418 22.9956C8.84119 23.1458 8.88981 23.2476 8.96777 23.314C9.0495 23.3835 9.18412 23.4321 9.38477 23.4321H9.38574C11.0945 23.4336 17.6955 23.4295 19.417 23.437C19.5532 23.4377 19.6576 23.4191 19.7354 23.3774C19.8075 23.3387 19.8708 23.2721 19.9141 23.146C19.971 22.9797 19.9393 22.8328 19.8555 22.7271C19.7702 22.6196 19.6188 22.5402 19.4131 22.5396C15.9835 22.535 12.8115 22.5332 9.38184 22.5347ZM9.25684 19.7524C9.13538 19.7708 9.04348 19.8144 8.97949 19.8706C8.89643 19.9438 8.84532 20.0516 8.84473 20.1968C8.8442 20.3515 8.89321 20.454 8.96973 20.52C9.04981 20.589 9.18202 20.6371 9.38184 20.6372H16.9111C18.644 20.6372 25.2747 20.6356 27.0078 20.6401C27.1148 20.6408 27.1994 20.6269 27.2666 20.5962C27.3304 20.5669 27.3884 20.518 27.4375 20.4302C27.5318 20.2614 27.5164 20.0938 27.4355 19.9683C27.364 19.8573 27.234 19.7688 27.0566 19.7476L26.9775 19.7427C23.5471 19.7397 12.8187 19.7412 9.38867 19.7427L9.25684 19.7524ZM9.25684 16.9585C9.13536 16.9769 9.04349 17.0204 8.97949 17.0767C8.89635 17.1499 8.84532 17.2576 8.84473 17.4028C8.84414 17.5577 8.89316 17.66 8.96973 17.7261C9.0498 17.7951 9.18191 17.8432 9.38184 17.8433H16.9111C18.644 17.8433 25.2747 17.8417 27.0078 17.8462C27.1148 17.8469 27.1994 17.833 27.2666 17.8022C27.3303 17.773 27.3884 17.724 27.4375 17.6362C27.5317 17.4675 27.5164 17.2998 27.4355 17.1743C27.3538 17.0476 27.1954 16.95 26.9775 16.9487C23.5471 16.9457 12.8187 16.9472 9.38867 16.9487L9.25684 16.9585ZM9.38965 14.1538C9.20096 14.1546 9.06674 14.2068 8.98145 14.2817C8.89823 14.3549 8.84728 14.4626 8.84668 14.6079C8.84615 14.7626 8.89418 14.8651 8.9707 14.9312C9.05081 15.0003 9.1835 15.0483 9.38379 15.0483H16.9121C18.6448 15.0483 25.2755 15.0468 27.0088 15.0513H27.0098C27.1166 15.0519 27.2005 15.038 27.2676 15.0073C27.3315 14.9781 27.3893 14.9293 27.4385 14.8413L27.4688 14.7788C27.5275 14.6326 27.5075 14.4903 27.4365 14.3804C27.3547 14.2537 27.196 14.1568 26.9785 14.1567C23.5473 14.1537 12.818 14.1538 9.38965 14.1538ZM8.62109 5.96924C8.37382 5.96947 8.17091 6.1711 8.1709 6.41943C8.1709 6.66879 8.37351 6.87075 8.62109 6.86963H11.9072C12.1545 6.86963 12.3574 6.66667 12.3574 6.41943C12.3574 6.17197 12.1557 5.96924 11.9072 5.96924H8.62109ZM8.62109 3.57666C8.37405 3.5769 8.1709 3.77976 8.1709 4.02686C8.17115 4.27398 8.37296 4.47584 8.62109 4.47607H14.9336C15.1809 4.47605 15.3835 4.27512 15.3838 4.02686C15.3838 3.77799 15.1807 3.57554 14.9326 3.57666H8.62109Z" stroke="#293E72" stroke-width="0.3"/>
<path d="M24.4932 32.7095C24.4903 33.4106 24.7119 34.0467 25.1699 34.6401L25.3564 34.8813H25.0518L8.45605 34.8833C6.81471 34.8833 5.17473 34.8815 3.5332 34.8755C2.39287 34.8723 1.46583 34.0188 1.38281 32.8911C1.37855 32.8406 1.37756 32.8019 1.37695 32.7749L1.25879 32.6343L1.48047 32.5708C1.5183 32.56 1.58229 32.5484 1.69531 32.5483H1.69629C5.23385 32.5573 8.77336 32.561 12.3125 32.561L21.7432 32.5591C22.5952 32.5591 23.4492 32.559 24.3076 32.562L24.3105 32.563L24.4941 32.522L24.4932 32.7095Z" stroke="#293E72" stroke-width="0.3"/>
<path d="M34.8984 3.69678L34.7539 3.70264L34.7148 3.70361H34.7061C34.4287 3.69765 34.1525 3.69678 33.874 3.69678L33.0977 3.69775L31.6387 3.69189C31.3611 3.6919 31.0841 3.6947 30.8076 3.70361L30.7959 3.70459V3.70361L30.7598 3.70264L30.6162 3.6958V3.48193C30.6396 2.32003 31.5915 1.37646 32.7529 1.37646L32.9707 1.38916C34.0422 1.50351 34.8879 2.41979 34.8984 3.52393V3.69678Z" stroke="#293E72" stroke-width="0.3"/>
<path d="M10.8008 24.6343L10.8018 24.6353C10.9719 24.6864 11.1025 24.777 11.1865 24.9116C11.2685 25.0431 11.2962 25.1998 11.293 25.3647C11.2813 25.9584 11.2855 26.55 11.2871 27.146C11.4176 27.0185 11.5478 26.8902 11.6777 26.7603C11.8261 26.6119 11.9752 26.4621 12.127 26.3149C12.2391 26.2054 12.3716 26.1228 12.5225 26.0972C12.6769 26.071 12.8326 26.108 12.9814 26.2056C13.1221 26.2977 13.2162 26.4332 13.249 26.5923C13.2813 26.7496 13.2516 26.9191 13.1699 27.0825C13.0307 27.3611 12.9376 27.6311 12.9443 27.9214L12.9512 27.9917C12.9618 28.0463 12.9808 28.0614 12.9834 28.063C12.9839 28.0633 13.0188 28.0822 13.1172 28.0259L13.374 27.856C13.4585 27.7954 13.5438 27.7316 13.6367 27.6665C14.1804 27.2851 14.79 27.1021 15.4414 27.0786H15.4424C15.9276 27.062 16.4127 27.0678 16.8926 27.0708C17.1219 27.0724 17.32 27.1195 17.4639 27.231C17.6142 27.3474 17.6835 27.5167 17.6855 27.7124C17.6883 27.9109 17.623 28.0831 17.4717 28.1997C17.3285 28.3099 17.1306 28.3532 16.9033 28.354C16.5759 28.354 16.2468 28.3555 15.918 28.354C15.2951 28.3515 14.7338 28.4803 14.2314 28.8169L14.0195 28.9741C13.7287 29.2116 13.4136 29.3403 13.0967 29.3589C12.7798 29.3775 12.4711 29.2854 12.1934 29.0981C11.9803 28.9547 11.839 28.762 11.7275 28.5337C11.5289 28.7386 11.3472 28.9278 11.166 29.1138C11.0656 29.2168 10.9477 29.2965 10.8115 29.3306C10.6731 29.3652 10.529 29.3493 10.3848 29.2837C10.2433 29.2204 10.1421 29.1245 10.0801 29.0024C10.0198 28.8836 10.0014 28.7499 10.0039 28.6177L10.0059 28.4272C10.0058 28.4211 10.005 28.4149 10.0049 28.4087C9.93919 28.5592 9.87466 28.7107 9.80762 28.8608C9.71956 29.0582 9.59855 29.2129 9.43848 29.2935C9.27278 29.3767 9.09032 29.3681 8.91211 29.2896C8.74199 29.2141 8.62064 29.0822 8.56934 28.9106C8.51911 28.7425 8.54125 28.5525 8.62207 28.3618V28.3608C9.08577 27.2684 9.55421 26.1773 10.0254 25.0894C10.1687 24.7572 10.4713 24.5374 10.8008 24.6343Z" fill="#293E72" stroke="#293E72" stroke-width="0.3"/>
<path d="M26.9785 19.4463C27.2888 19.4463 27.5468 19.5868 27.6885 19.8066C27.8309 20.0278 27.8459 20.3147 27.6992 20.5791C27.6214 20.7199 27.5173 20.8149 27.3916 20.8721C27.2999 20.9137 27.2022 20.9334 27.1045 20.9404L27.0068 20.9434C25.2743 20.9374 18.6444 20.9404 16.9111 20.9404C15.2023 20.9404 11.0908 20.9419 9.38184 20.9404C9.13882 20.9396 8.92712 20.8806 8.77441 20.749C8.61811 20.6143 8.54403 20.4211 8.54492 20.1982C8.54589 19.9772 8.6269 19.784 8.78223 19.6475C8.93558 19.5127 9.14695 19.4463 9.38867 19.4463C12.8188 19.4433 23.5484 19.4433 26.9785 19.4463Z" fill="#293E72" stroke="#293E72" stroke-width="0.3"/>
<path d="M26.9785 16.6528C27.2888 16.6528 27.5468 16.7933 27.6885 17.0132C27.8309 17.2343 27.8459 17.5213 27.6992 17.7856C27.6214 17.9264 27.5173 18.0215 27.3916 18.0786C27.2999 18.1203 27.2022 18.14 27.1045 18.147L27.0068 18.1499C25.2743 18.1439 18.6444 18.147 16.9111 18.147C15.2023 18.147 11.0908 18.1485 9.38184 18.147C9.13882 18.1461 8.92712 18.0872 8.77441 17.9556C8.61811 17.8209 8.54403 17.6277 8.54492 17.4048C8.54589 17.1837 8.6269 16.9905 8.78223 16.854C8.93558 16.7192 9.14695 16.6528 9.38867 16.6528C12.8188 16.6498 23.5484 16.6498 26.9785 16.6528Z" fill="#293E72" stroke="#293E72" stroke-width="0.3"/>
<path d="M26.9756 13.8608C27.2865 13.8609 27.5439 14.0018 27.6855 14.2212C27.8279 14.4419 27.8436 14.7291 27.6973 14.9917C27.6195 15.132 27.5151 15.2267 27.3896 15.2837C27.298 15.3254 27.2002 15.3441 27.1025 15.3511L27.0049 15.355C25.2723 15.349 18.6424 15.3521 16.9092 15.3521C15.2003 15.3521 11.0888 15.3536 9.37988 15.3521C9.13688 15.3512 8.92517 15.2922 8.77246 15.1606C8.61616 15.026 8.54208 14.8328 8.54297 14.6099C8.54392 14.3887 8.62504 14.1952 8.78027 14.0591C8.93349 13.9249 9.14461 13.8604 9.38477 13.8618V13.8608C12.8147 13.8578 23.5457 13.8578 26.9756 13.8608Z" fill="#293E72" stroke="#293E72" stroke-width="0.3"/>
<path d="M19.4141 22.2402C19.6975 22.2411 19.9409 22.3522 20.0908 22.541C20.2418 22.7314 20.2866 22.9864 20.1982 23.2441C20.1335 23.4331 20.0238 23.5639 19.877 23.6426C19.7357 23.7182 19.5738 23.7381 19.416 23.7373C17.695 23.7298 11.0958 23.7339 9.38574 23.7324C9.14106 23.7324 8.92738 23.6737 8.77344 23.543C8.61594 23.4091 8.54028 23.217 8.54199 22.9951C8.5438 22.7742 8.62625 22.5792 8.78027 22.4414C8.93288 22.3049 9.14344 22.2354 9.38281 22.2354C12.8126 22.2339 15.9843 22.2357 19.4141 22.2402Z" fill="#293E72" stroke="#293E72" stroke-width="0.3"/>
<path d="M14.9326 3.27637C15.3453 3.27662 15.6826 3.61458 15.6826 4.02734C15.6824 4.43967 15.3469 4.77709 14.9326 4.77734H8.62207C8.20954 4.77734 7.87133 4.44181 7.87109 4.02734C7.87109 3.61362 8.20661 3.27462 8.62207 3.27637H14.9326Z" fill="#293E72" stroke="#293E72" stroke-width="0.3"/>
<path d="M11.9082 5.66943C12.3209 5.66943 12.6582 6.00574 12.6582 6.42041C12.658 6.83409 12.3217 7.17105 11.9082 7.16943L8.62305 7.17041C8.21027 7.17041 7.87231 6.83313 7.87207 6.42041C7.87207 6.00773 8.20838 5.66943 8.62305 5.66943H11.9082Z" fill="#293E72" stroke="#293E72" stroke-width="0.3"/>
<path d="M32.7041 0.154297C34.2414 0.157485 35.5278 1.09456 35.9707 2.54395L36.0146 2.70312C36.0785 2.9687 36.0989 3.2302 36.1074 3.48047L36.1143 3.77539L36.123 4.10449V4.23438C36.1154 4.37938 36.0759 4.56415 35.9326 4.71484V4.71582C35.7425 4.91377 35.4823 4.93164 35.3184 4.93164H35.3174C34.7497 4.92565 34.1963 4.92578 33.6426 4.92578H32.7656C32.1481 4.92578 31.5306 4.92461 30.9121 4.91797C30.918 11.0619 30.9184 17.2058 30.9199 23.3496L30.9209 32.585C30.9208 33.5748 30.5785 34.4751 29.9473 35.1143C29.3127 35.7567 28.4164 36.1058 27.4258 36.1074C22.377 36.1104 17.3275 36.1104 12.2803 36.1104H8.78223L3.5498 36.1045C2.01884 36.1013 0.671836 35.0922 0.27832 33.6445C0.172121 33.2546 0.166586 32.873 0.162109 32.5254V32.5244C0.160604 32.3934 0.159602 32.265 0.152344 32.1387C0.144455 31.9967 0.146334 31.7454 0.333984 31.5459V31.5449C0.521062 31.3479 0.778334 31.3301 0.939453 31.3301H0.94043C1.34045 31.3331 1.73017 31.334 2.11816 31.334L3.52344 31.333C4.13581 31.333 4.74848 31.3359 5.36133 31.3447L5.3623 31.3438C5.3533 27.5943 5.35547 23.8448 5.35547 20.0957V3.65332C5.35625 2.63085 5.71542 1.75292 6.33984 1.13086C6.96417 0.508978 7.84438 0.151439 8.87012 0.151367L25.2227 0.149414C27.7163 0.149414 30.2104 0.151296 32.7041 0.154297ZM1.68066 32.8496C1.68103 32.8556 1.68119 32.8618 1.68164 32.8682C1.75256 33.8387 2.5477 34.5744 3.53418 34.5771L8.45605 34.585L24.7598 34.583C24.4071 34.0502 24.2222 33.4782 24.1982 32.8613C23.377 32.8587 22.5594 32.8594 21.7432 32.8594L12.3125 32.8604C8.77307 32.8604 5.23333 32.8576 1.69531 32.8486C1.69026 32.8486 1.68538 32.8496 1.68066 32.8496ZM8.7666 1.6748C7.66994 1.67643 6.88086 2.46564 6.88086 3.55859V31.1221C6.88086 31.1962 6.88042 31.2718 6.88184 31.3369C6.94775 31.3341 7.02497 31.333 7.09277 31.333H12.5508C16.6317 31.333 20.7112 31.3322 24.792 31.3232H24.8008C25.0227 31.3232 25.331 31.3452 25.542 31.5771L25.6123 31.668C25.7533 31.8864 25.7441 32.145 25.7295 32.2998C25.6975 32.6433 25.7102 32.8959 25.7637 33.1211C25.986 34.0496 26.8389 34.6741 27.7344 34.5723H27.7354C28.6778 34.4751 29.3891 33.6883 29.3906 32.7422C29.3951 29.5976 29.3936 26.4554 29.3936 23.3105L29.3926 19.2656L29.3936 14.0293C29.3936 10.5396 29.3956 7.04863 29.3926 3.55762V3.55664C29.3927 2.86428 29.5757 2.24864 29.9541 1.67285L8.7666 1.6748ZM32.5684 1.68652C31.6859 1.7765 30.9838 2.50344 30.9229 3.40234C31.1622 3.39609 31.4011 3.3916 31.6396 3.3916H31.6406L33.0967 3.39746L33.8721 3.39648C34.1109 3.39648 34.3495 3.39826 34.5889 3.40234C34.5164 2.44374 33.7184 1.68094 32.7529 1.67676L32.5684 1.68652Z" fill="#293E72" stroke="#293E72" stroke-width="0.3"/>
</svg>
