<svg width="38" height="38" viewBox="0 0 38 38" fill="none" xmlns="http://www.w3.org/2000/svg">
<path d="M18.8118 37.6236C8.42205 37.6236 0 29.2016 0 18.8118C0 8.42205 8.42205 0 18.8118 0C29.2016 0 37.6236 8.42205 37.6236 18.8118C37.6236 29.2016 29.2016 37.6236 18.8118 37.6236ZM12.9613 21.0128L12.9858 20.9996L14.6224 26.3986C14.8331 26.9837 15.1228 27.089 15.4746 27.0401C15.8283 26.9931 16.0145 26.8031 16.2459 26.5811L18.4807 24.4215L23.2777 27.9732C24.1544 28.4566 24.7846 28.2064 25.0028 27.1605L28.1199 12.4459C28.4641 11.0764 27.8622 10.5271 26.7993 10.9635L8.48977 18.0368C7.24067 18.5372 7.24819 19.237 8.26403 19.5474L12.9613 21.0128Z" fill="white"/>
</svg>
