<svg width="35" height="35" viewBox="0 0 35 35" fill="none" xmlns="http://www.w3.org/2000/svg">
<path d="M0.00699806 34.8739L2.36448 26.2113C0.811087 23.5485 -0.00503337 20.5198 2.33565e-05 17.437C2.33565e-05 7.80653 7.80656 0 17.437 0C27.0674 0 34.874 7.80653 34.874 17.437C34.874 27.0674 27.0674 34.8739 17.437 34.8739C14.3555 34.879 11.3282 34.0635 8.6662 32.5112L0.00699806 34.8739ZM11.144 9.25555C10.9188 9.26953 10.6988 9.32883 10.4971 9.42991C10.3079 9.53703 10.1353 9.67093 9.98443 9.82748C9.77519 10.0245 9.65662 10.1954 9.52933 10.361C8.88488 11.1998 8.53823 12.2293 8.54414 13.287C8.54763 14.1414 8.77082 14.9731 9.11956 15.7508C9.83273 17.3236 11.0062 18.9889 12.5564 20.532C12.9295 20.9034 13.294 21.2766 13.6863 21.6236C15.6103 23.3176 17.9031 24.5391 20.3821 25.1912L21.3743 25.3429C21.6968 25.3603 22.0194 25.3359 22.3437 25.3202C22.8517 25.2941 23.3474 25.1565 23.7962 24.9174C24.0857 24.764 24.2217 24.6873 24.4641 24.5338C24.4641 24.5338 24.5391 24.485 24.682 24.3769C24.9174 24.2025 25.0622 24.0787 25.2575 23.8747C25.4022 23.7247 25.5277 23.5486 25.6236 23.3481C25.7596 23.0639 25.8957 22.5216 25.9515 22.07C25.9933 21.7247 25.9811 21.5364 25.9759 21.4196C25.9689 21.233 25.8137 21.0395 25.6446 20.9575L24.6297 20.5024C24.6297 20.5024 23.1127 19.8415 22.1868 19.4196C22.0892 19.377 21.9845 19.3528 21.8782 19.3481C21.7589 19.3359 21.6384 19.3493 21.5247 19.3875C21.411 19.4257 21.3068 19.4877 21.2191 19.5695V19.566C21.2103 19.566 21.0935 19.6654 19.8328 21.1929C19.7605 21.2902 19.6609 21.3636 19.5465 21.4041C19.4323 21.4443 19.3085 21.4497 19.1911 21.4196C19.0776 21.3892 18.9662 21.3507 18.8581 21.3045C18.6419 21.2138 18.5669 21.1789 18.4187 21.1144L18.41 21.1109C17.4124 20.6754 16.4888 20.087 15.6724 19.3672C15.4527 19.1754 15.2486 18.9662 15.0394 18.7639C14.3534 18.1069 13.7556 17.3637 13.2608 16.5529L13.158 16.3873C13.0841 16.276 13.0243 16.1559 12.9801 16.0298C12.9138 15.7735 13.0865 15.5677 13.0865 15.5677C13.0865 15.5677 13.5102 15.1039 13.7072 14.8528C13.8713 14.6441 14.0244 14.427 14.1658 14.2024C14.3716 13.8711 14.4361 13.5311 14.328 13.2678C13.8398 12.0751 13.3341 10.8876 12.8145 9.70891C12.7116 9.47525 12.4064 9.30786 12.1292 9.27473C12.035 9.26426 11.9409 9.2538 11.8467 9.24683C11.6125 9.2352 11.3779 9.23926 11.144 9.25555Z" fill="white"/>
</svg>
